<svg width="20" height="20" viewBox="0 0 20 20" fill="none" xmlns="http://www.w3.org/2000/svg">
<path fill-rule="evenodd" clip-rule="evenodd" d="M13.85 0.501136C14.481 0.501136 15.111 0.590136 15.71 0.791136C19.401 1.99114 20.731 6.04114 19.62 9.58114C18.99 11.3901 17.96 13.0411 16.611 14.3901C14.68 16.2601 12.561 17.9201 10.28 19.3501L10.03 19.5011L9.77002 19.3401C7.48102 17.9201 5.35002 16.2601 3.40102 14.3801C2.06102 13.0311 1.03002 11.3901 0.390017 9.58114C-0.739983 6.04114 0.590017 1.99114 4.32102 0.770136C4.61102 0.670136 4.91002 0.600136 5.21002 0.561136H5.33002C5.61102 0.520136 5.89002 0.501136 6.17002 0.501136H6.28002C6.91002 0.520136 7.52002 0.630136 8.11102 0.831136H8.17002C8.21002 0.850136 8.24002 0.871136 8.26002 0.890136C8.48102 0.961136 8.69002 1.04114 8.89002 1.15114L9.27002 1.32114C9.36184 1.37011 9.4649 1.44494 9.55398 1.50961C9.61041 1.55058 9.66123 1.58748 9.70002 1.61114C9.71634 1.62076 9.73292 1.63044 9.74964 1.6402C9.83538 1.69026 9.9247 1.7424 10 1.80014C11.111 0.951136 12.46 0.491136 13.85 0.501136ZM16.51 7.70114C16.92 7.69014 17.27 7.36114 17.3 6.94014V6.82114C17.33 5.42014 16.481 4.15114 15.19 3.66114C14.78 3.52014 14.33 3.74114 14.18 4.16114C14.04 4.58114 14.26 5.04114 14.68 5.19014C15.321 5.43014 15.75 6.06114 15.75 6.76014V6.79114C15.731 7.02014 15.8 7.24114 15.94 7.41114C16.08 7.58114 16.29 7.68014 16.51 7.70114Z" fill="#263238"/>
</svg>
