<svg width="18" height="18" viewBox="0 0 18 18" fill="none" xmlns="http://www.w3.org/2000/svg">
<path fill-rule="evenodd" clip-rule="evenodd" d="M8.01653 9.00005C8.01653 9.7673 7.39478 10.3891 6.62753 10.3891C5.86028 10.3891 5.23853 9.7673 5.23853 9.00005C5.23853 8.2328 5.86028 7.61105 6.62753 7.61105H6.62978C7.39628 7.6118 8.01653 8.23355 8.01653 9.00005Z" stroke="#B9B9B9" stroke-width="1.5" stroke-linecap="round" stroke-linejoin="round"/>
<path d="M8.0188 9.00006H12.7573V10.3891" stroke="#B9B9B9" stroke-width="1.5" stroke-linecap="round" stroke-linejoin="round"/>
<path d="M10.6365 10.3891V9.00006" stroke="#B9B9B9" stroke-width="1.5" stroke-linecap="round" stroke-linejoin="round"/>
<path fill-rule="evenodd" clip-rule="evenodd" d="M2.06238 9.00006C2.06238 3.79731 3.79713 2.06256 8.99988 2.06256C14.2026 2.06256 15.9374 3.79731 15.9374 9.00006C15.9374 14.2028 14.2026 15.9376 8.99988 15.9376C3.79713 15.9376 2.06238 14.2028 2.06238 9.00006Z" stroke="#B9B9B9" stroke-width="1.5" stroke-linecap="round" stroke-linejoin="round"/>
</svg>
