<svg width="15" height="15" viewBox="0 0 15 15" fill="none" xmlns="http://www.w3.org/2000/svg">
<g clip-path="url(#clip0)">
<path d="M7.50063 1.17456C4.00701 1.17456 1.17529 4.00628 1.17529 7.49994C1.17529 10.0172 2.64952 12.1842 4.77813 13.2023L4.97611 9.37675C4.97611 9.37675 4.60371 9.25453 4.52219 9.21474C3.73232 8.86681 3.15852 7.84236 3.15852 6.51276C3.15852 5.06189 4.28371 3.8122 5.37155 3.80188C5.37293 3.80188 5.37293 3.80188 5.37384 3.80188C5.37431 3.80188 5.37522 3.80188 5.37565 3.80188C6.46373 3.81216 7.58897 5.06186 7.58897 6.51276C7.58897 7.84236 7.01445 8.86637 6.2262 9.21474C6.22001 9.21746 5.76866 9.38136 5.76866 9.38136L5.98976 13.6349C6.47496 13.7543 6.97942 13.8244 7.5015 13.8244C8.20556 13.8244 8.87983 13.7045 9.51246 13.4925L9.70839 9.70179C9.19207 9.58824 8.75167 9.25953 8.47564 8.84715C8.1337 8.33492 8.73886 3.80144 8.73886 3.80144H9.13254V8.05566H9.52349V3.80192H9.95105V8.05661H10.3402V3.80192H10.7837V8.05661H11.1742V3.80192H11.4763C11.4763 3.80192 12.0815 8.33539 11.7391 8.84762C11.4658 9.25595 11.0295 9.58371 10.5196 9.69998C10.5105 9.70321 10.5022 9.70636 10.5022 9.70636L10.6725 12.9671C12.5567 11.8716 13.8265 9.83641 13.8265 7.49998C13.8255 4.00632 10.9938 1.17456 7.50063 1.17456Z" fill="white"/>
<path d="M4.08413 5.86949C4.10679 5.77726 4.13724 5.68959 4.13862 5.68802C4.14847 5.65346 4.13015 5.6182 4.0926 5.59579C4.05691 5.57656 4.01341 5.58641 3.99328 5.6173C3.99328 5.6173 3.95002 5.68621 3.88729 5.78805C3.83627 5.87571 3.76075 6.01578 3.70921 6.1902C3.66457 6.34307 3.61127 6.54632 3.58723 6.77381C3.57695 6.89331 3.57462 7.00111 3.57829 7.11209C3.58723 7.23864 3.60642 7.34691 3.64306 7.47074C3.76733 7.82392 3.86302 8.1659 4.2084 8.50323C4.31757 8.6154 4.42974 8.69184 4.51074 8.74814L4.53935 8.76827C4.55676 8.77973 4.57347 8.79029 4.58993 8.79991C4.65794 8.8356 4.70344 8.84841 4.71172 8.85022C4.74556 8.85936 4.78039 8.84289 4.79477 8.81543C4.80828 8.78659 4.79843 8.75042 4.7703 8.72757C4.7703 8.72757 4.7309 8.69325 4.68035 8.62915C4.6458 8.59022 4.60825 8.53392 4.56456 8.47033C4.53367 8.42546 4.49727 8.37463 4.46339 8.32519C4.29515 8.06839 4.19815 7.70997 4.064 7.34281C4.03768 7.26315 4.01617 7.15992 4.00813 7.07226C3.99741 6.97108 3.99237 6.87361 3.99237 6.78319C3.98847 6.57308 3.99785 6.39271 4.01617 6.24646C4.03721 6.08146 4.05368 5.95763 4.08413 5.86949Z" fill="white"/>
<path d="M7.50044 0C3.36526 0 0 3.36455 0 7.49998C0 11.6345 3.36526 15 7.50044 15C11.6354 15 15 11.6345 15 7.49998C15 3.36455 11.6354 0 7.50044 0ZM7.50044 14.4406C3.67308 14.4406 0.559149 11.3269 0.559149 7.49998C0.559149 3.67261 3.67308 0.558677 7.50044 0.558677C11.3274 0.558677 14.4415 3.67261 14.4415 7.49998C14.4415 11.3269 11.3273 14.4406 7.50044 14.4406Z" fill="white"/>
</g>
<defs>
<clipPath id="clip0">
<rect width="15" height="15" fill="white"/>
</clipPath>
</defs>
</svg>
