<svg width="19" height="21" viewBox="0 0 19 21" fill="none" xmlns="http://www.w3.org/2000/svg">
<path fill-rule="evenodd" clip-rule="evenodd" d="M9.5 8C10.8809 8 12 9.11912 12 10.5C12 11.8809 10.8809 13 9.5 13C8.11912 13 7 11.8809 7 10.5C7 9.11912 8.11912 8 9.5 8Z" stroke="#130F26" stroke-width="1.5" stroke-linecap="round" stroke-linejoin="round"/>
<path fill-rule="evenodd" clip-rule="evenodd" d="M17.668 5.75025V5.75025C16.9845 4.55799 15.4712 4.15004 14.2885 4.83852C13.2598 5.43613 11.9741 4.68838 11.9741 3.49218C11.9741 2.11619 10.8659 1 9.49976 1V1C8.13365 1 7.02546 2.11619 7.02546 3.49218C7.02546 4.68838 5.73977 5.43613 4.71199 4.83852C3.52829 4.15004 2.01507 4.55799 1.33153 5.75025C0.648961 6.9425 1.05399 8.46665 2.23769 9.15415C3.26546 9.75274 3.26546 11.2473 2.23769 11.8459C1.05399 12.5343 0.648961 14.0585 1.33153 15.2498C2.01507 16.442 3.52829 16.85 4.71101 16.1625H4.71199C5.73977 15.5639 7.02546 16.3116 7.02546 17.5078V17.5078C7.02546 18.8838 8.13365 20 9.49976 20V20C10.8659 20 11.9741 18.8838 11.9741 17.5078V17.5078C11.9741 16.3116 13.2598 15.5639 14.2885 16.1625C15.4712 16.85 16.9845 16.442 17.668 15.2498C18.3515 14.0585 17.9455 12.5343 16.7628 11.8459H16.7618C15.7341 11.2473 15.7341 9.75274 16.7628 9.15415C17.9455 8.46665 18.3515 6.9425 17.668 5.75025Z" stroke="#130F26" stroke-width="1.5" stroke-linecap="round" stroke-linejoin="round"/>
</svg>
